<?xml version="1.0" encoding="UTF-8" standalone="no"?>
<svg
   xmlns:dc="http://purl.org/dc/elements/1.1/"
   xmlns:cc="http://creativecommons.org/ns#"
   xmlns:rdf="http://www.w3.org/1999/02/22-rdf-syntax-ns#"
   xmlns:svg="http://www.w3.org/2000/svg"
   xmlns="http://www.w3.org/2000/svg"
   version="1.1"
   id="svg2"
   height="7"
   width="9">
  <defs
     id="defs4" />
  <metadata
     id="metadata7">
    <rdf:RDF>
      <cc:Work
         rdf:about="">
        <dc:format>image/svg+xml</dc:format>
        <dc:type
           rdf:resource="http://purl.org/dc/dcmitype/StillImage" />
        <dc:title></dc:title>
      </cc:Work>
    </rdf:RDF>
  </metadata>
  <g
     id="layer1">
    <rect
       y="0"
       x="0"
       height="7"
       width="9"
       id="rect4144"
       style="stroke:none;fill:none;visibility:hidden" />
    <path
       id="path4259"
       d="m 1.3417969,0.69921875 a 0.30003001,0.30003001 0 0 0 -0.2714844,0.171875 C 0.82736345,1.3797037 0.70060087,1.9363455 0.69921875,2.5 0.69921875,4.5951287 2.4048713,6.3007812 4.5,6.3007812 6.5951287,6.3007812 8.3007812,4.5951287 8.3007812,2.5 8.2993991,1.9363455 8.1726366,1.3797037 7.9296875,0.87109375 a 0.30003001,0.30003001 0 0 0 -0.2714844,-0.171875 l -1.1621093,0 A 0.30003001,0.30003001 0 0 0 6.2558594,1.1796875 C 6.5427211,1.5601027 6.6982275,2.0235503 6.6992188,2.5 6.6992188,3.7185798 5.7185798,4.6992188 4.5,4.6992188 3.2814202,4.6992188 2.3007812,3.7185798 2.3007812,2.5 2.301277,2.0237466 2.4559396,1.5603181 2.7421875,1.1796875 A 0.30003001,0.30003001 0 0 0 2.5019531,0.69921875 l -1.1601562,0 z M 4.5,0.94921875 C 3.647512,0.94921875 2.9492188,1.647512 2.9492188,2.5 2.9492188,3.352488 3.647512,4.0507812 4.5,4.0507812 5.352488,4.0507812 6.0507812,3.352488 6.0507812,2.5 6.0507812,1.647512 5.352488,0.94921875 4.5,0.94921875 Z m -2.9257812,0.35156245 0.5273437,0 C 1.91136,1.6844452 1.6996692,2.0672323 1.6992188,2.5 1.6992188,4.0428439 2.9571561,5.3007812 4.5,5.3007812 6.0428439,5.3007812 7.3007812,4.0428439 7.3007812,2.5 7.2998808,2.0672058 7.0890578,1.6842612 6.8984375,1.3007812 l 0.5273437,0 C 7.5831708,1.6837444 7.6982007,2.0848256 7.6992188,2.5 7.6992188,4.2708646 6.2708646,5.6992188 4.5,5.6992188 2.7291354,5.6992188 1.3007812,4.2708646 1.3007812,2.5 1.3017993,2.0848256 1.4168292,1.6837444 1.5742188,1.3007812 Z M 4.5,1.5507812 C 5.0282239,1.5507812 5.4492188,1.9717761 5.4492188,2.5 5.4492188,3.0282239 5.0282239,3.4492188 4.5,3.4492188 3.9717761,3.4492188 3.5507813,3.0282239 3.5507812,2.5 3.5507812,1.9717761 3.9717761,1.5507813 4.5,1.5507812 Z"
       style="fill:#ffffff;fill-opacity:1" />
    <path
       id="path4247"
       d="M 1.341797,1 A 3.5,3.5 0 0 0 1,2.5 3.5,3.5 0 0 0 4.5,6 3.5,3.5 0 0 0 8,2.5 3.5,3.5 0 0 0 7.658203,1 L 6.496094,1 A 2.5,2.5 0 0 1 7,2.5 2.5,2.5 0 0 1 4.5,5 2.5,2.5 0 0 1 2,2.5 2.5,2.5 0 0 1 2.501953,1 L 1.341797,1 Z M 4.5,1.25 A 1.25,1.25 0 0 0 3.25,2.5 1.25,1.25 0 0 0 4.5,3.75 1.25,1.25 0 0 0 5.75,2.5 1.25,1.25 0 0 0 4.5,1.25 Z"
       style="fill:#24a6cc;fill-opacity:1" />
  </g>
</svg>
