<?xml version="1.0" encoding="UTF-8" standalone="no"?>
<svg
   xmlns:dc="http://purl.org/dc/elements/1.1/"
   xmlns:cc="http://creativecommons.org/ns#"
   xmlns:rdf="http://www.w3.org/1999/02/22-rdf-syntax-ns#"
   xmlns:svg="http://www.w3.org/2000/svg"
   xmlns="http://www.w3.org/2000/svg"
   version="1.1"
   id="svg2"
   height="6"
   width="7">
  <defs
     id="defs4" />
  <metadata
     id="metadata7">
    <rdf:RDF>
      <cc:Work
         rdf:about="">
        <dc:format>image/svg+xml</dc:format>
        <dc:type
           rdf:resource="http://purl.org/dc/dcmitype/StillImage" />
        <dc:title></dc:title>
      </cc:Work>
    </rdf:RDF>
  </metadata>
  <g
     id="layer1">
    <rect
       y="0"
       x="0"
       height="6"
       width="7"
       id="rect4144"
       style="stroke:none;fill:none;visibility:hidden" />
    <path
       id="path4245"
       d="M 1.2109375,1.25 A 0.250025,0.250025 0 0 0 0.98242188,1.4003906 C 0.830158,1.747164 0.75077208,2.1212713 0.75,2.5 0.75,4.0158219 1.9841781,5.25 3.5,5.25 5.0158219,5.25 6.25,4.0158219 6.25,2.5 6.2492279,2.1212713 6.169842,1.747164 6.0175781,1.4003906 A 0.250025,0.250025 0 0 0 5.7890625,1.25 l -1.1738281,0 A 0.250025,0.250025 0 0 0 4.4296875,1.6679688 C 4.6355602,1.896849 4.7493586,2.1921537 4.75,2.5 4.75,3.1933171 4.1933171,3.75 3.5,3.75 2.8066829,3.75 2.25,3.1933171 2.25,2.5 2.2506414,2.1921537 2.3644398,1.896849 2.5703125,1.6679688 A 0.250025,0.250025 0 0 0 2.3847656,1.25 l -1.1738281,0 z M 3.5,1.5 c -0.5493236,0 -1,0.4506764 -1,1 0,0.5493236 0.4506764,1 1,1 0.5493236,0 1,-0.4506764 1,-1 0,-0.5493236 -0.4506764,-1 -1,-1 z m -2.0917969,0.25 0.6308594,0 C 1.9154522,1.9929248 1.7505766,2.2232761 1.75,2.5 1.75,3.4635372 2.5364628,4.25 3.5,4.25 4.4635372,4.25 5.25,3.4635372 5.25,2.5 5.2494234,2.2232761 5.0845478,1.9929248 4.9609375,1.75 l 0.6308594,0 C 5.6788123,1.9922226 5.7494737,2.2418548 5.75,2.5 5.75,3.7456018 4.7456018,4.75 3.5,4.75 2.2543982,4.75 1.25,3.7456018 1.25,2.5 1.2505263,2.2418548 1.3211877,1.9922226 1.4082031,1.75 Z M 3.5,2 C 3.7791035,2 4,2.2208965 4,2.5 4,2.7791035 3.7791035,3 3.5,3 3.2208965,3 3,2.7791035 3,2.5 3,2.2208965 3.2208965,2 3.5,2 Z"
       style="fill:#ffffff;fill-opacity:1" />
    <path
       id="path4227"
       d="M 1.210938,1.5 A 2.5,2.5 0 0 0 1,2.5 2.5,2.5 0 0 0 3.5,5 2.5,2.5 0 0 0 6,2.5 2.5,2.5 0 0 0 5.789062,1.5 l -1.173828,0 A 1.5,1.5 0 0 1 5,2.5 1.5,1.5 0 0 1 3.5,4 1.5,1.5 0 0 1 2,2.5 1.5,1.5 0 0 1 2.384766,1.5 l -1.173828,0 z M 3.5,1.75 A 0.75,0.75 0 0 0 2.75,2.5 0.75,0.75 0 0 0 3.5,3.25 0.75,0.75 0 0 0 4.25,2.5 0.75,0.75 0 0 0 3.5,1.75 Z"
       style="fill:#24a6cc;fill-opacity:1" />
  </g>
</svg>
