<?xml version="1.0" encoding="UTF-8" standalone="no"?>
<svg
   xmlns:dc="http://purl.org/dc/elements/1.1/"
   xmlns:cc="http://creativecommons.org/ns#"
   xmlns:rdf="http://www.w3.org/1999/02/22-rdf-syntax-ns#"
   xmlns:svg="http://www.w3.org/2000/svg"
   xmlns="http://www.w3.org/2000/svg"
   version="1.1"
   id="svg2"
   height="10"
   width="7">
  <defs
     id="defs4" />
  <metadata
     id="metadata7">
    <rdf:RDF>
      <cc:Work
         rdf:about="">
        <dc:format>image/svg+xml</dc:format>
        <dc:type
           rdf:resource="http://purl.org/dc/dcmitype/StillImage" />
        <dc:title></dc:title>
      </cc:Work>
    </rdf:RDF>
  </metadata>
  <g
     id="layer1">
    <rect
       y="0"
       x="0"
       height="10"
       width="7"
       id="rect4144"
       style="stroke:none;fill:none;visibility:hidden" />
    <path
       style="fill:#ffffff;fill-opacity:1"
       d="M 3.4960938,0.75 A 0.250025,0.250025 0 0 0 3.3222656,0.82226562 C 3.2499509,0.8945805 3.242992,0.94264432 3.2246094,0.99609375 3.2062267,1.0495432 3.1900713,1.107592 3.1757812,1.1738281 3.1472012,1.3063003 3.1212078,1.4721648 3.0957031,1.6660156 3.0825224,1.7661975 3.0713227,1.914161 3.0585938,2.0273438 3.0216373,1.9421818 2.9888582,1.8269894 2.9511719,1.75 2.865644,1.5752749 2.7790645,1.4241552 2.6835938,1.2988281 2.588123,1.1735011 2.485819,1.0662364 2.328125,1.0136719 A 0.250025,0.250025 0 0 0 2.0136719,1.328125 c 0.7079395,2.1238176 0.7335964,4.465528 0.734375,4.6152344 5e-7,9.3e-5 -5e-7,0.00186 0,0.00195 C 2.6261265,6.1141162 2.5001759,6.2883609 2.5,6.5 c 0,0.5493236 0.4506764,1 1,1 0.5493236,0 1,-0.4506764 1,-1 C 4.4998241,6.2883609 4.3738735,6.1141162 4.2519531,5.9453125 l 0,-0.00195 C 4.2527317,5.7936488 4.2783849,3.4519421 4.9863281,1.328125 A 0.250025,0.250025 0 0 0 4.671875,1.0136719 C 4.514181,1.0662364 4.411877,1.1735011 4.3164062,1.2988281 4.2209355,1.4241552 4.134356,1.5752749 4.0488281,1.75 4.0111418,1.8269894 3.9783627,1.9421818 3.9414062,2.0273438 3.9286773,1.914161 3.9174776,1.7661975 3.9042969,1.6660156 3.8787922,1.4721648 3.8527988,1.3063004 3.8242188,1.1738281 3.8099287,1.107592 3.7937733,1.0495432 3.7753906,0.99609375 3.757008,0.9426443 3.7500492,0.89458057 3.6777344,0.82226562 A 0.250025,0.250025 0 0 0 3.4960938,0.75 Z M 3.5,2.6425781 c 0.015515,0.1645043 0.032198,0.2924118 0.046875,0.4648438 a 0.250025,0.250025 0 0 0 0.4882812,0.056641 C 4.079394,3.0300319 4.1263594,2.9393825 4.171875,2.8125 3.8659251,4.3998988 3.7525872,5.8166189 3.7519531,5.9414062 a 0.250025,0.250025 0 0 0 0.082031,0.1875 C 3.9392393,6.2237141 3.9998823,6.3583416 4,6.5 4,6.7791035 3.7791035,7 3.5,7 3.2208965,7 3,6.7791035 3,6.5 3.0001177,6.3583416 3.0607607,6.2237141 3.1660156,6.1289062 a 0.250025,0.250025 0 0 0 0.082031,-0.1875 C 3.2474128,5.8166158 3.1340743,4.3998977 2.828125,2.8125 2.8736406,2.9393825 2.920606,3.0300319 2.9648438,3.1640625 A 0.250025,0.250025 0 0 0 3.453125,3.1074219 C 3.4678024,2.9349898 3.484485,2.8070825 3.5,2.6425781 Z M 1.2109375,5.25 A 0.250025,0.250025 0 0 0 0.98242188,5.4003906 C 0.83015805,5.7471639 0.75077206,6.1212713 0.75,6.5 0.75,8.0158219 1.9841781,9.2499999 3.5,9.25 5.0158219,9.25 6.25,8.0158219 6.25,6.5 6.2492279,6.1212713 6.169842,5.747164 6.0175781,5.4003906 A 0.250025,0.250025 0 0 0 5.7890625,5.25 l -1.1738281,0 A 0.250025,0.250025 0 0 0 4.4296875,5.6679688 C 4.6355602,5.896849 4.7493586,6.1921537 4.75,6.5 4.75,7.1933171 4.1933171,7.75 3.5,7.75 2.8066829,7.75 2.25,7.1933171 2.25,6.5 2.2506414,6.1921537 2.3644398,5.896849 2.5703125,5.6679688 A 0.250025,0.250025 0 0 0 2.3847656,5.25 l -1.1738281,0 z m 0.1972656,0.5 0.6308594,0 C 1.9154522,5.9929248 1.7505766,6.2232761 1.75,6.5 1.75,7.4635372 2.5364628,8.25 3.5,8.25 4.4635372,8.25 5.25,7.4635372 5.25,6.5 5.2494234,6.2232761 5.0845478,5.9929248 4.9609375,5.75 l 0.6308594,0 C 5.6788123,5.9922226 5.7494737,6.2418548 5.75,6.5 5.75,7.7456018 4.7456018,8.75 3.5,8.75 2.2543982,8.75 1.25,7.7456018 1.25,6.5 1.2505262,6.2418548 1.3211878,5.9922226 1.4082031,5.75 Z"
       id="path4265" />
    <path
       id="path4267"
       d="M 3.5,0.99999995 C 3.39359,1.1064102 3.290257,2.0622972 3.203125,3.0859382 2.899058,2.1646832 2.555623,1.3518742 2.25,1.2500002 3,3.5000002 3,6.0000001 3,6.0000001 l 1,0 c 0,0 0,-2.4999999 0.75,-4.75 C 4.444377,1.3518741 4.100942,2.1646832 3.796875,3.0859382 3.709743,2.0622972 3.60641,1.1064102 3.5,0.99999995 Z M 1.210938,5.5000002 a 2.5,2.5 0 0 0 -0.2109379,0.9999999 2.5,2.5 0 0 0 2.4999999,2.5 2.5,2.5 0 0 0 2.5,-2.5 2.5,2.5 0 0 0 -0.210938,-1 l -1.173828,0 a 1.5,1.5 0 0 1 0.384766,1 1.5,1.5 0 0 1 -1.5,1.5 1.5,1.5 0 0 1 -1.5,-1.5 1.5,1.5 0 0 1 0.384766,-1 l -1.173828,0 z"
       style="fill:#24a6cc;fill-opacity:1" />
    <circle
       r="0.75"
       cy="6.5"
       cx="3.5"
       id="circle4269"
       style="fill:#ff4020;fill-opacity:1" />
  </g>
</svg>
