<?xml version="1.0" encoding="UTF-8" standalone="no"?>
<svg
   xmlns:dc="http://purl.org/dc/elements/1.1/"
   xmlns:cc="http://creativecommons.org/ns#"
   xmlns:rdf="http://www.w3.org/1999/02/22-rdf-syntax-ns#"
   xmlns:svg="http://www.w3.org/2000/svg"
   xmlns="http://www.w3.org/2000/svg"
   width="9"
   height="15"
   id="svg2"
   version="1.1">
  <defs
     id="defs4" />
  <metadata
     id="metadata7">
    <rdf:RDF>
      <cc:Work
         rdf:about="">
        <dc:format>image/svg+xml</dc:format>
        <dc:type
           rdf:resource="http://purl.org/dc/dcmitype/StillImage" />
        <dc:title></dc:title>
      </cc:Work>
    </rdf:RDF>
  </metadata>
  <g
     id="layer1">
    <rect
       y="0"
       x="0"
       height="15"
       width="9"
       id="rect4144"
       style="stroke:none;fill:none;visibility:hidden" />
    <path
       style="fill:#ffffff;fill-opacity:1"
       d="m 6.5039062,0.69140625 a 0.30003001,0.30003001 0 0 0 -0.046875,0.003906 C 6.1523356,0.73884039 5.895878,0.91825387 5.6835938,1.1582031 5.4713095,1.3981524 5.2932646,1.7054157 5.1308594,2.0605469 4.9257426,2.5090753 4.7877623,3.1136303 4.6328125,3.6796875 4.5288632,3.3291792 4.4615467,2.9287906 4.3105469,2.6484375 4.0545606,2.173162 3.6632231,1.841636 3.1816406,1.7578125 c -0.00144,-0.00109 -5.019e-4,-0.00477 -0.00195,-0.00586 l -0.00195,0.00391 C 3.1139857,1.7450167 3.0676057,1.6914062 3,1.6914062 A 0.30003001,0.30003001 0 0 0 2.8203125,2.2324219 C 2.9355189,2.3188267 3.1662742,2.7935668 3.3027344,3.4570312 3.3620681,3.7455098 3.382723,4.1386698 3.4257812,4.4804688 3.35342,4.3809832 3.298507,4.2386855 3.2226562,4.1503906 2.9419484,3.8236297 2.5957972,3.6664505 2.234375,3.578125 2.2131766,3.5603313 2.2015377,3.5183408 2.1796875,3.5019531 l -0.011719,0.037109 C 2.1053991,3.5280918 2.0653787,3.4414062 2,3.4414062 A 0.30003001,0.30003001 0 0 0 1.8203125,3.9824219 C 1.9885975,4.1086357 2.2259699,4.4346659 2.4433594,4.8691406 2.6607488,5.3036153 2.8698538,5.843461 3.0507812,6.4042969 3.4112185,7.5215741 3.6595578,8.7339994 3.6875,9.3535156 3.3060145,9.6420779 2.9499203,9.9993526 2.9492188,10.490234 a 0.30003001,0.30003001 0 0 0 0,0.002 c 0,0.852487 0.6982932,1.548828 1.5507812,1.548828 0.852488,0 1.5507812,-0.696341 1.5507812,-1.548828 C 6.0503558,10.005236 5.6984421,9.6485279 5.3222656,9.359375 5.3644886,8.7934381 5.72292,7.7731327 6.1972656,6.8398438 6.6745782,5.9007173 7.2882212,5.0260217 7.6796875,4.7324219 A 0.30003001,0.30003001 0 0 0 7.5,4.1914062 c -0.062108,0 -0.1111227,0.073356 -0.171875,0.082031 l -0.00781,-0.021484 c -0.00934,0.00701 -0.018,0.02986 -0.027344,0.037109 -0.384563,0.065733 -0.7562291,0.2177056 -1.09375,0.5195313 C 6.0566666,4.93607 5.9371039,5.1355044 5.8007812,5.2890625 5.9101632,4.5736449 6.0135892,3.8375071 6.1445312,3.203125 6.3430324,2.2414351 6.5825547,1.4385807 6.7578125,1.1464844 A 0.30003001,0.30003001 0 0 0 6.5039062,0.69140625 Z M 5.9101562,1.9238281 C 5.7946971,2.3120806 5.661395,2.574522 5.5566406,3.0820312 5.3536536,4.0654541 5.1737425,5.2151346 5.0292969,6.2851562 a 0.30003001,0.30003001 0 0 0 0.546875,0.2070313 C 5.8989178,6.0054122 6.2559088,5.563211 6.5996094,5.2558594 6.2799847,5.6893779 5.9447288,6.0103443 5.6621094,6.5664062 5.1627362,7.5489375 4.7699019,8.5840864 4.71875,9.3339844 a 0.30003001,0.30003001 0 0 0 0.1738281,0.2929687 c 0.3394133,0.1543954 0.5563149,0.4923549 0.5566407,0.8652349 0,0.528223 -0.4209949,0.949218 -0.9492188,0.949218 -0.5282239,0 -0.9492188,-0.420995 -0.9492188,-0.949218 5.353e-4,-0.374474 0.2188897,-0.7119351 0.5605469,-0.8652349 A 0.30003001,0.30003001 0 0 0 4.2871094,9.3398438 C 4.2557185,8.6032348 3.9965063,7.3844004 3.6210938,6.2207031 3.526108,5.9262679 3.4056209,5.6762423 3.296875,5.4003906 3.4030203,5.5858037 3.5182724,5.7142935 3.6171875,5.9199219 A 0.30003001,0.30003001 0 0 0 4.1855469,5.7695312 C 4.1258433,4.9069504 4.0366223,4.0457713 3.890625,3.3359375 3.8447499,3.1128944 3.7230858,3.0292308 3.6679688,2.8378906 c 0.035009,0.054207 0.078593,0.029346 0.1132812,0.09375 0.2383432,0.4425186 0.4257623,1.0953921 0.5605469,1.8125 a 0.30003001,0.30003001 0 0 0 0.5878906,0.00781 C 5.130526,3.8301841 5.3825034,2.9518571 5.6757812,2.3105469 5.750995,2.1460772 5.8312552,2.0528327 5.9101562,1.9238281 Z M 1.3417969,8.6914062 A 0.30003001,0.30003001 0 0 0 1.0703125,8.8613281 C 0.82736349,9.3699379 0.70060092,9.92658 0.69921875,10.490234 a 0.30003001,0.30003001 0 0 0 0,0.002 c 0,2.095128 1.70565255,3.798828 3.80078125,3.798828 2.0951287,0 3.8007812,-1.7037 3.8007812,-3.798828 a 0.30003001,0.30003001 0 0 0 0,-0.002 C 8.2993991,9.92658 8.1726365,9.3699379 7.9296875,8.8613281 A 0.30003001,0.30003001 0 0 0 7.6582031,8.6914062 l -1.1621093,0 A 0.30003001,0.30003001 0 0 0 6.2558594,9.171875 c 0.2868616,0.3804151 0.4423681,0.843863 0.4433594,1.320313 0,1.218579 -0.980639,2.199218 -2.1992188,2.199218 -1.2185798,0 -2.1992188,-0.980639 -2.1992188,-2.199218 C 2.301277,10.015934 2.4559396,9.5525055 2.7421875,9.171875 A 0.30003001,0.30003001 0 0 0 2.5019531,8.6914062 l -1.1601562,0 z m 0.2324219,0.5996094 0.5273437,0 C 1.91136,9.6746795 1.6996693,10.057467 1.6992188,10.490234 a 0.30003001,0.30003001 0 0 0 0,0.002 c 0,1.542843 1.2579373,2.798828 2.8007812,2.798828 1.5428439,0 2.8007812,-1.255985 2.8007812,-2.798828 a 0.30003001,0.30003001 0 0 0 0,-0.002 C 7.2998808,10.05744 7.0890578,9.6744955 6.8984375,9.2910156 l 0.5273437,0 c 0.1578677,0.3834708 0.2724179,0.7853544 0.2734376,1.2011724 0,1.770864 -1.4283542,3.199218 -3.1992188,3.199218 -1.7708646,0 -3.1992188,-1.428354 -3.1992188,-3.199218 0.00102,-0.415818 0.1155699,-0.8177016 0.2734376,-1.2011724 z"
       id="path4265" />
    <path
       id="path4267"
       d="M 6.5,0.99152132 C 5.652621,1.1125753 5.043549,2.8215993 4.636719,4.6887873 4.361122,3.2225013 3.882064,1.9915213 3,1.9915213 3.525212,2.3854303 3.768323,4.0797953 3.886719,5.7903493 3.347655,4.6697233 2.676922,3.7415213 2,3.7415213 c 1,0.75 2,4.5 2,5.75 l 1,0 c 0,-1.25 1.5,-4.25 2.5,-5 -0.70251,0 -1.508793,0.830958 -2.173828,1.833984 C 5.613807,4.1947683 6.045932,1.7483013 6.5,0.99152132 Z M 1.341797,8.9915213 A 3.5,3.5 0 0 0 1,10.491521 a 3.5,3.5 0 0 0 3.5,3.5 3.5,3.5 0 0 0 3.5,-3.5 3.5,3.5 0 0 0 -0.341797,-1.4999997 l -1.162109,0 A 2.5,2.5 0 0 1 7,10.491521 a 2.5,2.5 0 0 1 -2.5,2.5 2.5,2.5 0 0 1 -2.5,-2.5 2.5,2.5 0 0 1 0.501953,-1.4999997 l -1.160156,0 z"
       style="fill:#24a6cc;fill-opacity:1" />
    <circle
       r="1.25"
       cy="10.5"
       cx="4.5"
       id="circle4269"
       style="fill:#ff4020;fill-opacity:1" />
  </g>
</svg>
