<?xml version="1.0" encoding="UTF-8" standalone="no"?>
<svg
   xmlns:dc="http://purl.org/dc/elements/1.1/"
   xmlns:cc="http://creativecommons.org/ns#"
   xmlns:rdf="http://www.w3.org/1999/02/22-rdf-syntax-ns#"
   xmlns:svg="http://www.w3.org/2000/svg"
   xmlns="http://www.w3.org/2000/svg"
   version="1.1"
   id="svg2"
   height="10"
   width="9">
  <defs
     id="defs4" />
  <metadata
     id="metadata7">
    <rdf:RDF>
      <cc:Work
         rdf:about="">
        <dc:format>image/svg+xml</dc:format>
        <dc:type
           rdf:resource="http://purl.org/dc/dcmitype/StillImage" />
        <dc:title></dc:title>
      </cc:Work>
    </rdf:RDF>
  </metadata>
  <g
     id="layer1">
    <rect
       y="0"
       x="0"
       height="10"
       width="9"
       id="rect4144"
       style="stroke:none;fill:none;visibility:hidden" />
    <path
       style="fill:#ffffff;fill-opacity:1"
       d="M 4.5,0.69921875 C 2.4048713,0.69921875 0.69921875,2.4048713 0.69921875,4.5 0.7014958,5.8504746 1.4224794,7.1002923 2.5898438,7.7792969 a 0.30003001,0.30003001 0 0 0 0.4179687,-0.125 L 3.4550781,6.7597656 A 0.30003001,0.30003001 0 0 0 3.3457031,6.3691406 C 2.6965699,5.9687253 2.3016222,5.2626963 2.3007812,4.5 c 0,-1.2185798 0.980639,-2.1992188 2.1992188,-2.1992188 1.2185798,0 2.1992188,0.980639 2.1992188,2.1992188 -8.41e-4,0.7626963 -0.3957887,1.4687253 -1.0449219,1.8691406 a 0.30003001,0.30003001 0 0 0 -0.109375,0.390625 L 5.9921875,7.65625 a 0.30003001,0.30003001 0 0 0 0.4179687,0.125 C 7.5781728,7.1018647 8.2992575,5.8512308 8.3007812,4.5 8.3007812,2.4048713 6.5951287,0.69921875 4.5,0.69921875 Z m 0,0.60156245 C 6.2708646,1.3007813 7.6992188,2.7291354 7.6992188,4.5 7.6980653,5.5228685 7.158519,6.4252855 6.3457031,7.0234375 L 6.1699219,6.671875 C 6.8497012,6.1458607 7.2998216,5.3703057 7.3007812,4.5 7.3007812,2.9571561 6.0428439,1.6992188 4.5,1.6992188 2.9571561,1.6992188 1.6992188,2.9571561 1.6992188,4.5 c 9.596e-4,0.8703057 0.45108,1.6458607 1.1308593,2.171875 L 2.6542969,7.0214844 C 1.8418883,6.4237069 1.302505,5.5222944 1.3007812,4.5 1.3007813,2.7291354 2.7291354,1.3007812 4.5,1.3007812 Z m 0,1.6484376 c -0.852488,0 -1.5507812,0.6982932 -1.5507812,1.5507812 4.741e-4,0.532398 0.3106921,0.9840458 0.75,1.265625 l 0,3.234375 A 0.30003001,0.30003001 0 0 0 4,9.3007812 l 1,0 A 0.30003001,0.30003001 0 0 0 5.3007812,9 l 0,-3.234375 C 5.7400891,5.4840458 6.0503071,5.032398 6.0507812,4.5 6.0507812,3.647512 5.352488,2.9492188 4.5,2.9492188 Z m 0,0.6015624 C 5.0282239,3.5507812 5.4492188,3.9717761 5.4492188,4.5 5.4488819,4.8782266 5.22751,5.2178501 4.8808594,5.3691406 A 0.30003001,0.30003001 0 0 0 4.6992188,5.6445312 l 0,3.0546876 -0.3984376,0 0,-3.0546876 A 0.30003001,0.30003001 0 0 0 4.1191406,5.3691406 C 3.77249,5.2178501 3.5511181,4.8782266 3.5507812,4.5 3.5507812,3.9717761 3.9717761,3.5507813 4.5,3.5507812 Z"
       id="path4265" />
    <path
       id="path4267"
       d="M 4.5,1 A 3.5,3.5 0 0 0 1,4.5 3.5,3.5 0 0 0 2.740234,7.519531 L 3.1875,6.625 A 2.5,2.5 0 0 1 2,4.5 2.5,2.5 0 0 1 4.5,2 2.5,2.5 0 0 1 7,4.5 2.5,2.5 0 0 1 5.8125,6.625 L 6.259766,7.521484 A 3.5,3.5 0 0 0 8,4.5 3.5,3.5 0 0 0 4.5,1 Z M 4,5.644531 4,9 5,9 5,5.644531 A 1.25,1.25 0 0 1 4.5,5.75 1.25,1.25 0 0 1 4,5.644531 Z"
       style="fill:#24a6cc;fill-opacity:1" />
    <circle
       r="1.25"
       cy="4.5"
       cx="4.5"
       id="circle4269"
       style="fill:#ff4020;fill-opacity:1" />
  </g>
</svg>
