<?xml version="1.0" encoding="UTF-8" standalone="no"?>
<svg
   xmlns:dc="http://purl.org/dc/elements/1.1/"
   xmlns:cc="http://creativecommons.org/ns#"
   xmlns:rdf="http://www.w3.org/1999/02/22-rdf-syntax-ns#"
   xmlns:svg="http://www.w3.org/2000/svg"
   xmlns="http://www.w3.org/2000/svg"
   version="1.1"
   id="svg2"
   height="8"
   width="7">
  <defs
     id="defs4" />
  <metadata
     id="metadata7">
    <rdf:RDF>
      <cc:Work
         rdf:about="">
        <dc:format>image/svg+xml</dc:format>
        <dc:type
           rdf:resource="http://purl.org/dc/dcmitype/StillImage" />
        <dc:title></dc:title>
      </cc:Work>
    </rdf:RDF>
  </metadata>
  <g
     id="layer1">
    <rect
       y="0"
       x="0"
       height="8"
       width="7"
       id="rect4144"
       style="stroke:none;fill:none;visibility:hidden" />
    <path
       style="fill:#ffffff;fill-opacity:1"
       d="M 3.5,0.75 C 1.9841781,0.75 0.75,1.9841781 0.75,3.5 0.75092399,4.409048 1.2015259,5.2601451 1.953125,5.7714844 A 0.250025,0.250025 0 0 0 2.3183594,5.6757812 L 2.7714844,4.7675781 A 0.250025,0.250025 0 0 0 2.7050781,4.4628906 C 2.4168515,4.2257101 2.250499,3.8732679 2.25,3.5 2.25,2.8066829 2.8066829,2.25 3.5,2.25 4.1933171,2.25 4.75,2.8066829 4.75,3.5 4.749501,3.8732679 4.5831485,4.2257101 4.2949219,4.4628906 a 0.250025,0.250025 0 0 0 -0.064453,0.3046875 l 0.4550781,0.9082031 a 0.250025,0.250025 0 0 0 0.3632812,0.095703 C 5.7996115,5.2596608 6.2495601,4.4086467 6.25,3.5 6.25,1.9841781 5.0158219,0.75 3.5,0.75 Z m 0,0.5 C 4.7456018,1.25 5.75,2.2543982 5.75,3.5 5.7496903,4.1397528 5.4358038,4.7078551 4.96875,5.1308594 L 4.7167969,4.6269531 C 5.0054129,4.3080282 5.2494171,3.9360058 5.25,3.5 5.25,2.5364628 4.4635372,1.75 3.5,1.75 2.5364628,1.75 1.75,2.5364628 1.75,3.5 1.7505821,3.9353884 1.9953502,4.3062493 2.2832031,4.625 L 2.03125,5.1289062 C 1.5647221,4.7062136 1.2506497,4.1392142 1.25,3.5 1.25,2.2543982 2.2543982,1.25 3.5,1.25 Z m 0,1.25 c -0.5493236,0 -1,0.4506764 -1,1 0,0.5493236 0.4506764,1 1,1 0.5493236,0 1,-0.4506764 1,-1 0,-0.5493236 -0.4506764,-1 -1,-1 z M 3.5,3 C 3.7791035,3 4,3.2208965 4,3.5 4,3.7791035 3.7791035,4 3.5,4 3.2208965,4 3,3.7791035 3,3.5 3,3.2208965 3.2208965,3 3.5,3 Z M 3,5.25 A 0.250025,0.250025 0 0 0 2.75,5.5 l 0,1.5 A 0.250025,0.250025 0 0 0 3,7.25 l 1,0 A 0.250025,0.250025 0 0 0 4.25,7 l 0,-1.5 A 0.250025,0.250025 0 0 0 4,5.25 l -1,0 z m 0.25,0.5 0.5,0 0,1 -0.5,0 0,-1 z"
       id="path4383" />
    <path
       id="path4369"
       d="M 3.5,1 A 2.5,2.5 0 0 0 1,3.5 2.5,2.5 0 0 0 2.09375,5.564453 L 2.546875,4.65625 A 1.5,1.5 0 0 1 2,3.5 1.5,1.5 0 0 1 3.5,2 1.5,1.5 0 0 1 5,3.5 1.5,1.5 0 0 1 4.453125,4.65625 L 4.908203,5.564453 A 2.5,2.5 0 0 0 6,3.5 2.5,2.5 0 0 0 3.5,1 Z m 0,1.75 A 0.75,0.75 0 0 0 2.75,3.5 0.75,0.75 0 0 0 3.5,4.25 0.75,0.75 0 0 0 4.25,3.5 0.75,0.75 0 0 0 3.5,2.75 Z M 3,5.5 3,7 4,7 4,5.5 3,5.5 Z"
       style="fill:#24a6cc;fill-opacity:1" />
  </g>
</svg>
